<?xml version="1.0" encoding="UTF-8"?>
<svg version="1.1" xmlns="http://www.w3.org/2000/svg" width="1080" height="1080">
<path d="M0 0 C1.56911133 0.73319458 1.56911133 0.73319458 3.16992188 1.48120117 C6.51668411 3.05540239 9.85349799 4.64896381 13.1875 6.25 C14.26692871 6.7670752 15.34635742 7.28415039 16.45849609 7.81689453 C64.33378032 30.89253628 109.36753432 61.14475804 149.59130859 95.87597656 C151.27936225 97.32907628 152.97662147 98.77084454 154.67578125 100.2109375 C161.27527178 105.81463623 167.758867 111.51629113 174.10644531 117.40405273 C175.98738665 119.14642349 177.87853746 120.87373495 179.78198242 122.59179688 C188.13607691 130.14396481 196.16393368 138.00730826 204.13696289 145.95922852 C206.40265437 148.2150337 208.6788018 150.45996032 210.95507812 152.70507812 C212.40169402 154.14517832 213.84768169 155.58590993 215.29296875 157.02734375 C216.31151192 158.02736671 216.31151192 158.02736671 217.35063171 159.04759216 C218.28344719 159.98490929 218.28344719 159.98490929 219.23510742 160.94116211 C219.78293381 161.48534286 220.33076019 162.02952362 220.89518738 162.5901947 C222.38273026 164.50074755 222.86901887 165.85884318 223.1875 168.25 C222.3046875 170.828125 222.3046875 170.828125 220.1875 173.25 C217.33012821 174.55150086 214.35341934 175.24721702 211.3125 176 C190.29003372 181.77805988 170.77096597 190.96182344 154.1875 205.25 C153.44242188 205.85070312 152.69734375 206.45140625 151.9296875 207.0703125 C127.15547155 227.70110557 118.45079045 260.57585795 114.5 291.25 C114.38052002 292.17377441 114.26104004 293.09754883 114.13793945 294.04931641 C112.47362361 307.99775344 112.13502763 322.02903242 111.7578125 336.05859375 C111.7209232 337.41321877 111.68401198 338.7678432 111.64707947 340.12246704 C111.42031708 348.49005687 111.42031708 348.49005687 111.21337891 356.8581543 C110.04343961 406.04983445 104.16270864 448.90061467 67.31640625 484.47265625 C61.69201003 489.73232605 55.66265075 494.10559481 49.1875 498.25 C48.24003906 498.87003906 47.29257812 499.49007813 46.31640625 500.12890625 C39.6204652 504.28020396 32.5890861 507.27827789 25.33081055 510.27441406 C2.36460371 519.76318587 -14.70938754 532.45011637 -27.48046875 554.07421875 C-37.51402755 571.04455894 -52.99141864 582.48743501 -71.8125 588.25 C-80.7041553 590.01931544 -89.47957358 590.18440301 -97.8125 586.25 C-100.13277912 584.43078709 -100.13277912 584.43078709 -102.49299622 582.24501038 C-103.36590113 581.43696016 -104.23880604 580.62890995 -105.13816261 579.79637337 C-109.46154472 575.67986021 -113.70829812 571.49330847 -117.92456055 567.26733398 C-118.88982988 566.30342412 -119.85531084 565.33972613 -120.82098389 564.3762207 C-123.41194275 561.78977011 -125.99978956 559.20022769 -128.58689857 556.60992694 C-131.31137221 553.88289665 -134.03831317 551.15833525 -136.7648468 548.43336487 C-141.33827405 543.86174913 -145.90960653 539.28804672 -150.47973633 534.71313477 C-155.74589438 529.44152954 -161.01565367 524.17354489 -166.28728455 518.90741295 C-170.83548032 514.36376963 -175.38170647 509.81816249 -179.92632133 505.2709375 C-182.63106659 502.56464202 -185.336462 499.85900575 -188.04364586 497.15514946 C-190.58801825 494.61368713 -193.12989121 492.06975008 -195.66993713 489.52396393 C-197.0349626 488.15700782 -198.40241927 486.79248079 -199.76997375 485.42805481 C-204.03961997 481.14387097 -208.13960222 476.79097681 -212.08362865 472.20653629 C-215.2820556 468.58692723 -218.7156611 465.19948784 -222.13110352 461.78613281 C-223.33249969 460.57969872 -223.33249969 460.57969872 -224.5581665 459.34889221 C-227.18328915 456.71433782 -229.81210317 454.08350686 -232.44140625 451.453125 C-234.27798129 449.61333374 -236.1144822 447.77346848 -237.95091248 445.93353271 C-241.78963688 442.08883781 -245.63038303 438.24617724 -249.47241211 434.40478516 C-253.90375726 429.97404212 -258.32947711 425.53773439 -262.75263458 421.09881902 C-267.02559639 416.81118239 -271.30409464 412.52911506 -275.58469963 408.24910736 C-277.39837189 406.43425613 -279.2104253 404.61778558 -281.0208149 402.79965973 C-283.55024758 400.26042541 -286.08594267 397.72761026 -288.62329102 395.19628906 C-289.73860451 394.07254631 -289.73860451 394.07254631 -290.87644958 392.92610168 C-294.6586759 389.16665262 -298.33245322 386.12305009 -302.8125 383.25 C-306.84384015 378.15778086 -307.49978155 373.89000788 -307.2578125 367.4375 C-305.2743034 353.23975063 -295.60261043 342.85292588 -284.8125 334.25 C-268.15832904 321.94216146 -249.36613983 312.95373282 -230.87368774 303.78915405 C-219.82293177 298.31044532 -208.94055158 292.57470314 -198.17138672 286.55957031 C-195.95838429 285.33098979 -193.73423497 284.12644925 -191.50390625 282.9296875 C-176.56885721 274.85048249 -162.83928709 265.27678709 -150.8125 253.25 C-150.05324219 252.49074219 -149.29398438 251.73148438 -148.51171875 250.94921875 C-130.053566 231.37871028 -127.76617054 202.15439096 -127.58270454 176.57992935 C-127.56595274 174.32167589 -127.5427051 172.06356702 -127.51780701 169.8053894 C-127.44799677 163.39182087 -127.3875789 156.97819142 -127.33569336 150.56445312 C-127.01330411 111.7543341 -126.32050798 72.30873896 -99.8125 41.25 C-99.17054688 40.46367187 -98.52859375 39.67734375 -97.8671875 38.8671875 C-77.18443002 14.52106338 -31.22214053 -14.77129882 0 0 Z M-20.7265625 6.18359375 C-21.4784082 6.41602783 -22.23025391 6.64846191 -23.00488281 6.88793945 C-23.80764648 7.15179443 -24.61041016 7.41564941 -25.4375 7.6875 C-26.27635742 7.95973389 -27.11521484 8.23196777 -27.97949219 8.51245117 C-45.96698655 14.51895337 -63.30941392 22.87259815 -77.8125 35.25 C-78.62074219 35.92546875 -79.42898438 36.6009375 -80.26171875 37.296875 C-101.92148869 56.00454766 -112.86700721 81.89394997 -115.27734375 110.078125 C-115.54161287 113.79954747 -115.70832241 117.52044234 -115.8125 121.25 C-114.40982598 118.57421623 -113.31780752 115.95924983 -112.40234375 113.08203125 C-105.56806747 92.21895249 -95.91047554 75.31935264 -80.8125 59.25 C-80.296875 58.65832031 -79.78125 58.06664062 -79.25 57.45703125 C-69.27099023 46.51650231 -55.12659844 39.27498635 -41.8125 33.25 C-40.67039062 32.71761719 -39.52828125 32.18523437 -38.3515625 31.63671875 C-22.89683596 24.91651743 -5.52690157 21.17730674 11.1875 19.25 C8.86856982 16.65396496 6.57699929 15.28858906 3.44140625 13.8046875 C2.52166016 13.36769531 1.60191406 12.93070312 0.65429688 12.48046875 C-0.78333008 11.80951172 -0.78333008 11.80951172 -2.25 11.125 C-3.20455078 10.66996094 -4.15910156 10.21492188 -5.14257812 9.74609375 C-12.644638 5.80088331 -12.644638 5.80088331 -20.7265625 6.18359375 Z M-16.625 41.4375 C-18.05890166 43.22647019 -18.05890166 43.22647019 -17.63989258 45.65893555 C-16.61459142 48.86977094 -15.53088403 49.65424606 -12.76171875 51.51953125 C-11.92439209 52.09388916 -11.08706543 52.66824707 -10.22436523 53.26000977 C-9.32532471 53.85483154 -8.42628418 54.44965332 -7.5 55.0625 C-6.1234021 55.99823853 -6.1234021 55.99823853 -4.71899414 56.95288086 C-2.09300373 58.73328799 0.54478093 60.49455529 3.1875 62.25 C4.29725897 62.99421942 5.40671031 63.73889816 6.515625 64.484375 C8.35445401 65.71376354 10.19697968 66.93763903 12.04296875 68.15625 C16.07366472 70.84004259 20.06832955 73.57474427 24.0625 76.3125 C24.8678418 76.86446045 25.67318359 77.4164209 26.50292969 77.98510742 C27.74091309 78.83359253 27.74091309 78.83359253 29.00390625 79.69921875 C34.33013672 83.34966737 39.66426512 86.98846232 45 90.625 C45.9182959 91.25092041 46.8365918 91.87684082 47.78271484 92.52172852 C49.65149925 93.7954552 51.52031444 95.06913671 53.38916016 96.34277344 C58.90340733 100.10104415 64.41670414 103.86070889 69.93017578 107.62011719 C74.55078968 110.77064781 79.17163953 113.92083122 83.79296875 117.0703125 C84.71682373 117.70001953 85.64067871 118.32972656 86.5925293 118.97851562 C88.43631691 120.23520968 90.28022816 121.49172235 92.12426758 122.74804688 C97.39971833 126.34363194 102.66656516 129.95135917 107.92651367 133.56958008 C111.00369701 135.68148086 114.09027393 137.77937109 117.17822266 139.87548828 C119.00990631 141.12851124 120.82472606 142.40235967 122.63671875 143.68359375 C124.08498047 144.67552734 124.08498047 144.67552734 125.5625 145.6875 C126.35398437 146.24308594 127.14546875 146.79867187 127.9609375 147.37109375 C130.23833468 148.52521449 130.23833468 148.52521449 132.90625 147.5234375 C135.26831604 146.44666512 135.26831604 146.44666512 136.3125 144.4375 C136.15109095 141.6128417 134.96925745 140.67455698 132.984375 138.77319336 C128.93877992 135.34378199 124.49718956 132.42947604 120.125 129.4375 C119.082229 128.71828369 118.03945801 127.99906738 116.96508789 127.25805664 C111.1518643 123.25632173 105.31619426 119.29341112 99.42578125 115.40625 C91.94118398 110.42253746 84.53708546 105.31806917 77.11181641 100.24658203 C73.33045311 97.66484977 69.54683712 95.08643076 65.76318359 92.50805664 C57.29052898 86.73410497 48.82413245 80.95112388 40.36376953 75.15917969 C33.45879747 70.43313549 26.55045739 65.71197936 19.62939453 61.00952148 C14.74673438 57.68991591 9.88307011 54.34626348 5.04296875 50.96484375 C4.04177002 50.26987793 3.04057129 49.57491211 2.0090332 48.85888672 C0.08175169 47.52037701 -1.84052276 46.17462142 -3.75708008 44.82080078 C-4.62357178 44.22122559 -5.49006348 43.62165039 -6.3828125 43.00390625 C-7.14352051 42.47095947 -7.90422852 41.9380127 -8.68798828 41.38891602 C-11.5935683 39.83128205 -13.80159998 39.58768619 -16.625 41.4375 Z M-71.4375 68.75 C-72.22125 69.575 -73.005 70.4 -73.8125 71.25 C-71.34050804 76.62732116 -67.28913531 78.99560046 -62.5 82.125 C-60.77847608 83.27578776 -59.05712904 84.42684017 -57.3359375 85.578125 C-56.43327148 86.17689453 -55.53060547 86.77566406 -54.60058594 87.39257812 C-50.85517902 89.8877669 -47.13834721 92.42369508 -43.42285156 94.96313477 C-41.56211976 96.23463483 -39.69949457 97.50336863 -37.83496094 98.76928711 C-33.5394912 101.68723098 -29.26407257 104.62527269 -25.0390625 107.64453125 C-24.30969482 108.16128418 -23.58032715 108.67803711 -22.82885742 109.21044922 C-21.48606606 110.16451707 -20.14974746 111.12779158 -18.8215332 112.10205078 C-16.2000206 113.9562653 -14.20933908 115.19204714 -11.00390625 115.66015625 C-8.6118859 115.42601948 -8.6118859 115.42601948 -6.8125 113.25 C-6.64994154 109.81109131 -6.64994154 109.81109131 -7.8125 106.25 C-9.90948614 104.36365565 -11.6051052 103.13759467 -14 101.75 C-15.37907447 100.89168077 -16.75658494 100.03084533 -18.1328125 99.16796875 C-18.8846582 98.70438965 -19.63650391 98.24081055 -20.41113281 97.76318359 C-24.8160468 94.98749664 -29.08500141 92.01137482 -33.375 89.0625 C-35.24585294 87.78610529 -37.11695072 86.5100694 -38.98828125 85.234375 C-43.01386655 82.48452744 -47.03050038 79.72207272 -51.04296875 76.953125 C-52.05093506 76.25985107 -53.05890137 75.56657715 -54.09741211 74.85229492 C-56.04488768 73.5125536 -57.98980069 72.16907814 -59.93188477 70.8215332 C-60.80514404 70.22171631 -61.67840332 69.62189941 -62.578125 69.00390625 C-63.34930664 68.47095947 -64.12048828 67.9380127 -64.91503906 67.38891602 C-68.21848919 65.40608086 -68.5743767 66.0232159 -71.4375 68.75 Z M-88.8125 87.25 C-90.07191717 89.54558468 -90.07191717 89.54558468 -89.8125 92.25 C-86.44611854 96.08567256 -82.64173902 98.89085402 -78.375 101.625 C-77.03691862 102.50001615 -75.69973513 103.37640635 -74.36328125 104.25390625 C-73.63705566 104.72973145 -72.91083008 105.20555664 -72.16259766 105.69580078 C-67.764224 108.60459433 -63.41585711 111.58694117 -59.0625 114.5625 C-58.12156494 115.20493652 -57.18062988 115.84737305 -56.21118164 116.50927734 C-49.46787275 121.11488631 -42.72880492 125.72670473 -35.99047852 130.33959961 C-27.20543253 136.352634 -18.40797182 142.34744154 -9.61083984 148.34277344 C-4.09659267 152.10104415 1.41670414 155.86070889 6.93017578 159.62011719 C11.55078968 162.77064781 16.17163953 165.92083122 20.79296875 169.0703125 C30.19104161 175.47570294 39.58470866 181.88739576 48.96948242 188.31225586 C55.37108659 192.69379526 61.77832796 197.06703912 68.1875 201.4375 C69.13818359 202.08589844 70.08886719 202.73429687 71.06835938 203.40234375 C71.95330078 204.005625 72.83824219 204.60890625 73.75 205.23046875 C74.53503906 205.76567139 75.32007813 206.30087402 76.12890625 206.85229492 C79.60651904 209.48507963 79.60651904 209.48507963 83.75 210.1875 C86.43693622 209.46514767 86.43693622 209.46514767 87.5 206.6875 C87.726875 205.883125 87.95375 205.07875 88.1875 204.25 C84.65385828 198.97414495 79.86426987 196.12096652 74.625 192.75 C72.71546792 191.49973268 70.8066273 190.24840874 68.8984375 188.99609375 C67.93776367 188.36815918 66.97708984 187.74022461 65.98730469 187.09326172 C61.87264444 184.38436 57.80860949 181.60441522 53.75 178.8125 C52.18494724 177.73820635 50.61984235 176.66398865 49.0546875 175.58984375 C48.26416992 175.0469873 47.47365234 174.50413086 46.65917969 173.94482422 C42.23717882 170.91266993 37.80578174 167.89430198 33.375 164.875 C32.455979 164.24859619 31.53695801 163.62219238 30.59008789 162.97680664 C28.72204101 161.70356076 26.8539582 160.43036758 24.98583984 159.15722656 C19.47159267 155.39895585 13.95829586 151.63929111 8.44482422 147.87988281 C3.82421032 144.72935219 -0.79663953 141.57916878 -5.41796875 138.4296875 C-14.05429563 132.54347588 -22.68823132 126.65386786 -31.3125 120.75 C-33.65908686 119.14423276 -36.00577255 117.53861014 -38.35253906 115.93310547 C-40.04736049 114.77350851 -41.74201195 113.61366311 -43.43652344 112.45361328 C-53.80152877 105.36009775 -64.18674804 98.29790647 -74.625 91.3125 C-75.9869751 90.39803101 -75.9869751 90.39803101 -77.37646484 89.46508789 C-78.20742676 88.91071045 -79.03838867 88.35633301 -79.89453125 87.78515625 C-80.62905518 87.294104 -81.3635791 86.80305176 -82.12036133 86.29711914 C-84.86313327 84.5998534 -86.15876108 85.50848383 -88.8125 87.25 Z M-0.625 116.375 C-2.08849752 118.28957187 -2.08849752 118.28957187 -1.6796875 121.15234375 C-0.590557 125.04279638 0.44489849 125.64705445 3.875 127.6875 C4.96425781 128.36554688 6.05351563 129.04359375 7.17578125 129.7421875 C7.80436035 130.12987305 8.43293945 130.51755859 9.08056641 130.91699219 C13.31882896 133.59844219 17.42838317 136.47428654 21.5625 139.3125 C23.48276689 140.62414605 25.40334516 141.93533635 27.32421875 143.24609375 C28.77900635 144.23971924 28.77900635 144.23971924 30.26318359 145.25341797 C34.04454689 147.83515023 37.82816288 150.41356924 41.61181641 152.99194336 C49.308763 158.23726489 57.00161991 163.48847624 64.6875 168.75 C67.85396194 170.91696599 71.02067992 173.08355744 74.1875 175.25 C75.06937988 175.85344238 75.95125977 176.45688477 76.85986328 177.07861328 C81.494441 180.24869386 86.13330061 183.41205368 90.78125 186.5625 C94.3499749 188.98431761 97.88738564 191.44385864 101.40625 193.9375 C103.02079822 195.06255039 104.63537982 196.18755288 106.25 197.3125 C106.98162354 197.84367432 107.71324707 198.37484863 108.46704102 198.92211914 C110.35084255 200.22061013 112.07414956 201.37373275 114.1875 202.25 C116.89210803 201.6701839 118.24965817 201.18784183 120.1875 199.25 C120.65992037 196.86635203 120.65992037 196.86635203 120.1875 194.25 C118.24468059 192.20213378 118.24468059 192.20213378 115.53125 190.51171875 C114.52320313 189.82384277 113.51515625 189.1359668 112.4765625 188.42724609 C111.39117188 187.70875488 110.30578125 186.99026367 109.1875 186.25 C107.56487115 185.13738933 105.94225742 184.02475482 104.3210144 182.91012573 C102.04760459 181.35252474 99.76338253 179.81120324 97.47857666 178.27038574 C95.00932973 176.60514816 92.54297205 174.93565268 90.07644653 173.26638794 C88.83885047 172.42884583 87.60111984 171.59150252 86.36325073 170.75436401 C81.33480142 167.35303399 76.31977635 163.93242906 71.3125 160.5 C64.67230179 155.95003448 58.02629674 151.40872914 51.375 146.875 C50.46194092 146.25254395 49.54888184 145.63008789 48.6081543 144.98876953 C43.85937082 141.75173982 39.10974541 138.51595039 34.359375 135.28125 C33.40571045 134.63148193 32.4520459 133.98171387 31.46948242 133.31225586 C29.5954097 132.03590473 27.72059013 130.7606494 25.8449707 129.48657227 C21.88982856 126.79598225 17.94668712 124.09542967 14.05859375 121.30859375 C13.45668213 120.87981934 12.85477051 120.45104492 12.23461914 120.00927734 C10.70028315 118.91111483 9.17394711 117.80179729 7.6484375 116.69140625 C4.63706455 114.9276021 2.46153651 114.45921872 -0.625 116.375 Z M-90.75 119.9375 C-92.07407377 122.20301668 -92.07407377 122.20301668 -91.28125 124.61328125 C-89.33861811 128.10071882 -86.6862559 129.71174656 -83.375 131.75 C-82.00163624 132.63000166 -80.62928696 133.51158802 -79.2578125 134.39453125 C-78.53110352 134.85811035 -77.80439453 135.32168945 -77.05566406 135.79931641 C-73.23552084 138.26985308 -69.49641191 140.85709121 -65.75 143.4375 C-64.13043201 144.54850322 -62.5106351 145.65917279 -60.890625 146.76953125 C-59.64829102 147.621521 -59.64829102 147.621521 -58.38085938 148.49072266 C-53.00729155 152.17151445 -47.62374179 155.83768908 -42.24072266 159.50463867 C-37.46141432 162.76066316 -32.68498878 166.02076536 -27.9140625 169.2890625 C-26.45963745 170.28413818 -26.45963745 170.28413818 -24.97583008 171.29931641 C-23.14396215 172.55277403 -21.31299294 173.80754666 -19.4831543 175.06396484 C-13.34340779 179.26185167 -7.10859865 183.2907761 -0.8125 187.25 C3.24774321 185.21197865 3.24774321 185.21197865 5.1875 181.25 C2.56550303 177.2136007 -0.5831509 174.77902818 -4.5546875 172.1328125 C-5.38881416 171.57194946 -5.38881416 171.57194946 -6.23979187 170.99975586 C-8.0509207 169.78419316 -9.8691349 168.57970445 -11.6875 167.375 C-12.95491475 166.52672851 -14.2217546 165.67759747 -15.48803711 164.82763672 C-18.04669637 163.11104391 -20.60764292 161.39795315 -23.17041016 159.6875 C-28.26242137 156.284931 -33.31957895 152.83161211 -38.375 149.375 C-40.14970222 148.16400774 -41.92444114 146.95306926 -43.69921875 145.7421875 C-47.89516299 142.87701382 -52.09078202 140.01136511 -56.28442383 137.14282227 C-57.86275669 136.06382177 -59.44199383 134.9861426 -61.0222168 133.90991211 C-64.83452085 131.30945015 -68.62241791 128.68216101 -72.375 125.99609375 C-73.10219238 125.48079102 -73.82938477 124.96548828 -74.57861328 124.43457031 C-75.94331957 123.46578367 -77.30157597 122.48781871 -78.65185547 121.49902344 C-81.32668432 119.60982354 -83.36334142 118.31336677 -86.63671875 117.8515625 C-88.95572067 118.08500654 -88.95572067 118.08500654 -90.75 119.9375 Z M-90.125 156.3125 C-92.01966177 158.13234782 -92.01966177 158.13234782 -92.15234375 160.6640625 C-92.05094486 163.30977533 -92.05094486 163.30977533 -90.265625 164.98828125 C-89.53859375 165.50777344 -88.8115625 166.02726563 -88.0625 166.5625 C-87.22589844 167.16707031 -86.38929688 167.77164063 -85.52734375 168.39453125 C-81.88414457 170.88448753 -78.22974224 173.35220378 -74.54296875 175.77734375 C-69.80486922 178.90219234 -65.12432096 182.11149491 -60.4375 185.3125 C-59.49527588 185.95550049 -58.55305176 186.59850098 -57.58227539 187.26098633 C-53.70526226 189.90729481 -49.82918047 192.55496152 -45.95410156 195.20410156 C-45.02307617 195.84057617 -44.09205078 196.47705078 -43.1328125 197.1328125 C-42.20895752 197.76445312 -41.28510254 198.39609375 -40.33325195 199.046875 C-37.59679086 200.9141016 -34.85524835 202.77368414 -32.11328125 204.6328125 C-28.58385551 207.02886522 -25.08603756 209.46326736 -21.60546875 211.9296875 C-19.9870223 213.05735358 -18.36853482 214.18496076 -16.75 215.3125 C-16.01813477 215.84383545 -15.28626953 216.3751709 -14.53222656 216.92260742 C-12.64975163 218.22019908 -10.92195125 219.36889298 -8.8125 220.25 C-5.87810095 219.91020618 -5.87810095 219.91020618 -3.8125 218.25 C-2.47142639 215.96242433 -2.47142639 215.96242433 -2.8125 213.25 C-5.8248735 209.88448857 -8.95912823 207.30343816 -12.75 204.875 C-18.61270848 201.05024649 -24.40861798 197.13785232 -30.1875 193.1875 C-32.10805219 191.87627172 -34.02862545 190.56507431 -35.94921875 189.25390625 C-36.91907715 188.59148926 -37.88893555 187.92907227 -38.88818359 187.24658203 C-41.74351322 185.29710084 -44.60000765 183.34934136 -47.45703125 181.40234375 C-48.83507935 180.46310059 -48.83507935 180.46310059 -50.2409668 179.50488281 C-52.07151271 178.25763004 -53.90240144 177.01088024 -55.73364258 175.76464844 C-60.24870584 172.68983629 -64.75409356 169.60235294 -69.2421875 166.48828125 C-70.53926636 165.59133545 -70.53926636 165.59133545 -71.86254883 164.67626953 C-73.490221 163.54982106 -75.11523909 162.41952391 -76.73706055 161.28466797 C-82.98281034 156.31993756 -82.98281034 156.31993756 -90.125 156.3125 Z M12.3125 189.9375 C10.92202499 192.18998773 10.92202499 192.18998773 11.6953125 194.58984375 C13.71449662 198.18948875 16.54753749 199.94768353 19.9375 202.125 C21.40131592 203.09724346 22.86484196 204.06992347 24.328125 205.04296875 C25.11509766 205.56036621 25.90207031 206.07776367 26.71289062 206.61083984 C30.15607394 208.89157512 33.55796173 211.2307141 36.9621582 213.5690918 C39.72729838 215.46478451 42.50145679 217.34664872 45.27734375 219.2265625 C48.90104938 221.68312555 52.50544795 224.16416426 56.09158325 226.67527771 C58.80186873 228.56764122 61.52773675 230.43742527 64.25 232.3125 C65.26707031 233.03397217 66.28414062 233.75544434 67.33203125 234.4987793 C68.2859375 235.15015869 69.23984375 235.80153809 70.22265625 236.47265625 C71.0619165 237.05797119 71.90117676 237.64328613 72.76586914 238.24633789 C75.19826959 239.53568852 75.19826959 239.53568852 77.92749023 238.56811523 C80.36697835 237.42617849 80.36697835 237.42617849 81.3125 234.9375 C81.16061599 231.67199377 80.09022288 230.78412144 77.78417969 228.59985352 C74.79730207 226.07470882 71.53122392 223.99406355 68.25 221.875 C66.63592852 220.81630796 65.02268452 219.75635356 63.41015625 218.6953125 C62.5608252 218.1374707 61.71149414 217.57962891 60.83642578 217.00488281 C56.25350434 213.96875016 51.72330652 210.85587295 47.1875 207.75 C45.33618216 206.48792229 43.4846209 205.22620157 41.6328125 203.96484375 C38.92549023 202.12025742 36.22048395 200.2727165 33.52246094 198.41455078 C31.0412535 196.70574182 28.55271701 195.00814119 26.0625 193.3125 C25.32257813 192.79816406 24.58265625 192.28382813 23.8203125 191.75390625 C23.13453125 191.28984375 22.44875 190.82578125 21.7421875 190.34765625 C21.14905762 189.94039307 20.55592773 189.53312988 19.94482422 189.11352539 C16.87799627 187.60652755 14.83668125 187.66573687 12.3125 189.9375 Z M-87.6875 197.9375 C-89.0553706 200.1734195 -89.0553706 200.1734195 -88.41015625 202.51953125 C-85.97840443 206.67550808 -82.36437725 208.66917101 -78.375 211.25 C-76.63259258 212.40852348 -74.89041111 213.56738684 -73.1484375 214.7265625 C-72.25737305 215.3134082 -71.36630859 215.90025391 -70.44824219 216.50488281 C-66.43247825 219.16370836 -62.46780664 221.89536818 -58.5 224.625 C-56.94177761 225.69194881 -55.3831758 226.75834367 -53.82421875 227.82421875 C-53.02419434 228.37126465 -52.22416992 228.91831055 -51.39990234 229.48193359 C-46.5393793 232.8033063 -41.67618236 236.12075597 -36.8125 239.4375 C-35.86205811 240.0857373 -34.91161621 240.73397461 -33.93237305 241.40185547 C-33.04718994 242.00529785 -32.16200684 242.60874023 -31.25 243.23046875 C-30.46496094 243.76567139 -29.67992187 244.30087402 -28.87109375 244.85229492 C-24.26359952 248.08156547 -24.26359952 248.08156547 -18.8125 248.25 C-16.54976085 245.50551325 -16.54976085 245.50551325 -16.94921875 242.76953125 C-17.99315225 239.72275702 -19.03762014 238.81626411 -21.625 236.9375 C-22.45257812 236.33292969 -23.28015625 235.72835937 -24.1328125 235.10546875 C-27.7519415 232.59951208 -31.39965973 230.14463993 -35.078125 227.7265625 C-38.89590889 225.20903834 -42.66891099 222.62740887 -46.44311523 220.04516602 C-50.24762778 217.44253131 -54.05869699 214.84957023 -57.86962891 212.25634766 C-59.84798979 210.90756968 -61.82419651 209.5556271 -63.79833984 208.20068359 C-66.67227852 206.22931983 -69.55399748 204.26983858 -72.4375 202.3125 C-73.31978271 201.70325684 -74.20206543 201.09401367 -75.11108398 200.46630859 C-75.93294189 199.91152832 -76.7547998 199.35674805 -77.6015625 198.78515625 C-78.32037598 198.294104 -79.03918945 197.80305176 -79.77978516 197.29711914 C-82.9206059 195.67917773 -85.02063348 195.53732013 -87.6875 197.9375 Z M6.625 223.75 C5.4184375 224.9875 5.4184375 224.9875 4.1875 226.25 C6.64639015 231.48351328 10.47927274 233.92368656 15.125 237.0625 C15.89497314 237.59383545 16.66494629 238.1251709 17.45825195 238.67260742 C22.49929042 242.14013038 27.58034311 245.54866386 32.6875 248.91796875 C38.56357549 252.81194892 44.36571285 256.81711518 50.18432617 260.79614258 C51.98413626 262.02596726 53.78584921 263.25301254 55.58959961 264.47705078 C57.31561144 265.65497559 59.03273417 266.84603679 60.74047852 268.05029297 C61.53252686 268.60088379 62.3245752 269.15147461 63.140625 269.71875 C63.83704102 270.21052734 64.53345703 270.70230469 65.25097656 271.20898438 C67.34458842 272.54415738 67.34458842 272.54415738 70.75 272.125 C71.554375 271.83625 72.35875 271.5475 73.1875 271.25 C73.5175 269.27 73.8475 267.29 74.1875 265.25 C66.29758658 258.40215061 57.63390234 252.79476019 48.9296875 247.0546875 C42.20086346 242.61417112 35.55244454 238.05806681 28.91113281 233.48803711 C17.79746056 223.9270284 17.79746056 223.9270284 6.625 223.75 Z M-99.8125 225.25 C-100.98862195 227.03671071 -100.98862195 227.03671071 -100.8125 229.25 C-96.98894762 233.60480916 -92.49745226 236.78060472 -87.75 240.0625 C-86.98905029 240.59383545 -86.22810059 241.1251709 -85.4440918 241.67260742 C-80.42623793 245.16501675 -75.36347969 248.58443156 -70.26171875 251.953125 C-62.70955257 256.95871089 -55.25793372 262.11692921 -47.77636719 267.22705078 C-44.80297277 269.25650269 -41.82760522 271.28302773 -38.8515625 273.30859375 C-37.88138184 273.96915771 -36.91120117 274.62972168 -35.91162109 275.31030273 C-34.07370905 276.56156333 -32.23551384 277.81240815 -30.39697266 279.06274414 C-29.54925293 279.64016357 -28.7015332 280.21758301 -27.828125 280.8125 C-27.00248047 281.37195313 -26.17683594 281.93140625 -25.32617188 282.5078125 C-23.57242663 283.72330649 -21.84068965 284.97090659 -20.12695312 286.2421875 C-19.25490234 286.88414062 -18.38285156 287.52609375 -17.484375 288.1875 C-16.70674805 288.77402344 -15.92912109 289.36054687 -15.12792969 289.96484375 C-12.42759951 291.4636352 -10.85579874 291.63790894 -7.8125 291.25 C-5.7339392 289.67304368 -5.7339392 289.67304368 -4.8125 287.25 C-5.97308628 282.74547451 -7.86610376 281.14679431 -11.75 278.75 C-13.37615234 277.71552734 -13.37615234 277.71552734 -15.03515625 276.66015625 C-15.63859863 276.27875488 -16.24204102 275.89735352 -16.86376953 275.50439453 C-20.52649842 273.1467021 -24.10008203 270.65761074 -27.6875 268.1875 C-29.33437959 267.05822057 -30.98152209 265.92932448 -32.62890625 264.80078125 C-33.47598145 264.22021973 -34.32305664 263.6396582 -35.19580078 263.04150391 C-40.58679261 259.35060094 -45.98676684 255.67286211 -51.38574219 251.99365234 C-56.15054617 248.74659481 -60.91438438 245.49814601 -65.67578125 242.24609375 C-70.26454459 239.11199383 -74.85762267 235.98430127 -79.45263672 232.859375 C-81.5579495 231.42359785 -83.65701118 229.97927589 -85.75390625 228.53125 C-86.82511719 227.7990625 -87.89632812 227.066875 -89 226.3125 C-89.88042969 225.70535156 -90.76085937 225.09820312 -91.66796875 224.47265625 C-95.21049874 222.45296247 -96.45807036 223.01371357 -99.8125 225.25 Z M-112.375 251.75 C-113.5815625 252.9875 -113.5815625 252.9875 -114.8125 254.25 C-112.35360447 259.48352473 -108.52074286 261.9236624 -103.875 265.0625 C-102.72330322 265.85732788 -102.72330322 265.85732788 -101.54833984 266.66821289 C-96.4225185 270.19429317 -91.25421363 273.65771355 -86.0625 277.0859375 C-81.99664856 279.79324723 -77.96645787 282.55069114 -73.9375 285.3125 C-72.29036786 286.44141104 -70.64323237 287.57031717 -68.99609375 288.69921875 C-68.14901855 289.27978027 -67.30194336 289.8603418 -66.42919922 290.45849609 C-61.95709168 293.52029169 -57.47856514 296.57266115 -53 299.625 C-52.0817041 300.25092041 -51.1634082 300.87684082 -50.21728516 301.52172852 C-48.34850075 302.7954552 -46.47968556 304.06913671 -44.61083984 305.34277344 C-39.09877472 309.09955696 -33.58761203 312.8576643 -28.07641602 316.61572266 C-23.41877339 319.79163327 -18.76062957 322.96680434 -14.1015625 326.140625 C-13.16175537 326.78128906 -12.22194824 327.42195313 -11.25366211 328.08203125 C-9.39638707 329.34694262 -7.53785212 330.61000631 -5.67797852 331.87109375 C-1.43122018 334.75530721 2.78847547 337.66461375 6.94921875 340.671875 C7.68027832 341.19426758 8.41133789 341.71666016 9.16455078 342.25488281 C10.51187575 343.22081797 11.85082048 344.19860046 13.17919922 345.19042969 C15.89580587 347.1267423 17.60672997 348.25646198 20.99609375 348.21875 C23.51560735 347.3392956 23.51560735 347.3392956 25.1875 344.25 C24.99923852 341.60198363 24.46490739 340.5278722 22.5847168 338.64453125 C21.88000244 338.12246094 21.17528809 337.60039063 20.44921875 337.0625 C19.63243652 336.45664062 18.8156543 335.85078125 17.97412109 335.2265625 C12.70268559 331.4875103 7.36383366 327.85424898 2 324.25 C0.75350148 323.40888719 -0.49275148 322.56741035 -1.73876953 321.72558594 C-4.24651514 320.03148498 -6.75506521 318.33858609 -9.26416016 316.64648438 C-14.25035369 313.28155409 -19.2196983 309.89200339 -24.1875 306.5 C-25.96222706 305.28904414 -27.73696657 304.07810653 -29.51171875 302.8671875 C-30.38103027 302.27389648 -31.2503418 301.68060547 -32.14599609 301.06933594 C-34.89490495 299.19377571 -37.64460082 297.31937456 -40.39453125 295.4453125 C-49.03883607 289.55413381 -57.68041802 283.65907642 -66.3125 277.75 C-67.85414695 276.69528369 -69.39581384 275.6405965 -70.9375 274.5859375 C-73.4916321 272.83865026 -76.04516867 271.09050938 -78.59765625 269.34082031 C-81.50147149 267.35055395 -84.40688499 265.36263766 -87.3125 263.375 C-88.19615234 262.76849609 -89.07980469 262.16199219 -89.99023438 261.53710938 C-101.15714433 251.95271347 -101.15714433 251.95271347 -112.375 251.75 Z M-133.8125 281.25 C-136.07925182 283.99662877 -136.07925182 283.99662877 -135.66381836 286.74414062 C-134.65445797 289.71519742 -133.72937285 290.5511769 -131.19140625 292.34375 C-130.43013428 292.89232666 -129.6688623 293.44090332 -128.88452148 294.00610352 C-128.05637939 294.58158936 -127.2282373 295.1570752 -126.375 295.75 C-125.52043213 296.36093506 -124.66586426 296.97187012 -123.78540039 297.60131836 C-122.0058067 298.87250351 -120.22212884 300.13798895 -118.43457031 301.39794922 C-115.25541703 303.64348523 -112.10448345 305.92625825 -108.95483398 308.21289062 C-106.7324913 309.82520258 -104.50569063 311.43115479 -102.27734375 313.03515625 C-98.53610081 315.72829436 -94.7978775 318.42557198 -91.06152344 321.12548828 C-89.57187214 322.20149129 -88.08164496 323.27669751 -86.59082031 324.35107422 C-82.66689677 327.18004934 -78.75418755 330.02308502 -74.85546875 332.88671875 C-74.04271484 333.48097656 -73.22996094 334.07523438 -72.39257812 334.6875 C-70.83730135 335.82507387 -69.28503726 336.96678217 -67.73632812 338.11328125 C-62.64549132 341.88535989 -62.64549132 341.88535989 -56.8125 344.25 C-54.38945632 343.3285608 -54.38945632 343.3285608 -52.8125 341.25 C-52.32767963 338.82443007 -52.32767963 338.82443007 -52.8125 336.25 C-54.50506523 334.24008085 -54.50506523 334.24008085 -56.9375 332.5625 C-58.31808594 331.52609375 -58.31808594 331.52609375 -59.7265625 330.46875 C-61.25410156 329.37046875 -61.25410156 329.37046875 -62.8125 328.25 C-63.85148437 327.4971875 -64.89046875 326.744375 -65.9609375 325.96875 C-68.27322886 324.30359859 -70.59493906 322.65242778 -72.921875 321.0078125 C-77.15636895 318.01326524 -81.36037229 314.97723096 -85.5625 311.9375 C-87.09504509 310.82941741 -88.62759724 309.72134458 -90.16015625 308.61328125 C-90.92730957 308.05850098 -91.69446289 307.5037207 -92.48486328 306.93212891 C-94.79992034 305.25909103 -97.11649814 303.58818192 -99.43359375 301.91796875 C-100.19027344 301.37205078 -100.94695312 300.82613281 -101.7265625 300.26367188 C-103.23186669 299.1786631 -104.73836236 298.09530527 -106.24609375 297.01367188 C-109.89473121 294.38960778 -113.5075457 291.73316905 -117.06640625 288.98828125 C-117.74098877 288.47410645 -118.41557129 287.95993164 -119.1105957 287.43017578 C-120.37231652 286.4653026 -121.62548322 285.48909281 -122.86791992 284.49951172 C-125.65909124 282.37734491 -127.61285656 281.27909496 -131.109375 280.76953125 C-132.00140625 280.92808594 -132.8934375 281.08664062 -133.8125 281.25 Z M-164.8125 303.25 C-164.62430532 306.1436701 -164.29692771 307.7163545 -162.33227539 309.88061523 C-161.69797607 310.35184814 -161.06367676 310.82308105 -160.41015625 311.30859375 C-159.69311523 311.85298096 -158.97607422 312.39736816 -158.23730469 312.95825195 C-157.45774414 313.52890381 -156.67818359 314.09955566 -155.875 314.6875 C-154.23505911 315.91844797 -152.5957551 317.15024479 -150.95703125 318.3828125 C-150.10963379 319.01477539 -149.26223633 319.64673828 -148.38916016 320.29785156 C-145.83027831 322.23653067 -143.32259428 324.22630117 -140.82421875 326.2421875 C-140.02556396 326.8822876 -139.22690918 327.5223877 -138.40405273 328.18188477 C-136.87271182 329.41177936 -135.34720266 330.64897973 -133.82836914 331.89428711 C-129.91317364 335.00350555 -127.02089791 337.16410438 -121.8125 337.25 C-119.74847315 336.26951062 -119.74847315 336.26951062 -118.8125 334.25 C-118.7831229 331.4591755 -119.27853444 329.81680626 -121.20581055 327.77099609 C-123.13156064 326.11085761 -125.10751861 324.54738641 -127.125 323 C-127.8476001 322.43007324 -128.5702002 321.86014648 -129.31469727 321.27294922 C-131.46849628 319.582192 -133.63639618 317.91191895 -135.8125 316.25 C-136.40192383 315.79979492 -136.99134766 315.34958984 -137.59863281 314.88574219 C-140.09341921 312.9895848 -142.60282614 311.11600551 -145.12890625 309.26171875 C-147.72423892 307.31616369 -150.1966676 305.26388442 -152.6875 303.1875 C-155.4980487 300.98904902 -156.64776149 300.27995246 -160.25 299.625 C-163.15246315 300.02662107 -163.15246315 300.02662107 -164.8125 303.25 Z M-220.625 310.5625 C-221.69621094 311.0977832 -222.76742187 311.63306641 -223.87109375 312.18457031 C-233.99695573 317.28041634 -243.93600397 322.68867103 -253.8125 328.25 C-250.41572182 331.77718466 -246.9159817 334.81427046 -243 337.75 C-237.87421139 341.63011743 -232.85139993 345.61770245 -227.875 349.6875 C-220.5928939 355.63601768 -213.22440952 361.4644752 -205.8125 367.25 C-197.73357504 373.556178 -189.72038097 379.93123391 -181.77832031 386.40917969 C-175.74733512 391.32083269 -169.64277098 396.13336246 -163.51269531 400.92041016 C-161.26108075 402.68122189 -159.01568479 404.44987328 -156.77001953 406.21826172 C-150.80105258 410.91730833 -144.81133455 415.58915319 -138.8125 420.25 C-131.68920722 425.78450443 -124.58553308 431.3430816 -117.49804688 436.92333984 C-114.60441177 439.20086203 -111.70833448 441.47527541 -108.8125 443.75 C-105.35822649 446.46338743 -101.90433952 449.17725354 -98.453125 451.89453125 C-91.92264114 457.03426392 -85.37500641 462.15120342 -78.8125 467.25 C-71.68920722 472.78450443 -64.58553308 478.3430816 -57.49804688 483.92333984 C-55.18962373 485.74025342 -52.87968136 487.55522722 -50.5690918 489.36938477 C-49.40547571 490.28394334 -48.24286347 491.19978069 -47.08129883 492.11694336 C-44.07476862 494.48838058 -41.05176644 496.83275734 -37.99609375 499.140625 C-37.05540039 499.85895508 -37.05540039 499.85895508 -36.09570312 500.59179688 C-34.9091671 501.49707992 -33.7168705 502.39488848 -32.51757812 503.28320312 C-26.61623364 507.81246751 -22.7583738 512.99719766 -20.8125 520.25 C-18.3112749 516.49816236 -18.67412408 514.8895691 -19.2734375 510.58984375 C-21.48244099 501.00148801 -29.39593294 494.59456639 -36.71875 488.73828125 C-39.96418026 486.12800464 -43.1428641 483.45112189 -46.3125 480.75 C-50.25852563 477.394981 -54.22893838 474.07776737 -58.25 470.8125 C-63.11458624 466.85427044 -67.87312178 462.78350939 -72.62304688 458.68945312 C-76.12466351 455.67768013 -79.66027593 452.71948309 -83.25 449.8125 C-88.35191756 445.67235776 -93.30404918 441.37454617 -98.25439453 437.0559082 C-101.99267347 433.80268026 -105.77176379 430.61746975 -109.625 427.5 C-113.98188253 423.97330631 -118.13925904 420.27497911 -122.28125 416.5 C-124.9009481 414.17137947 -127.5876531 411.95437053 -130.3125 409.75 C-134.77958963 406.13617469 -139.04817038 402.3587352 -143.29296875 398.48828125 C-145.84454917 396.22152842 -148.46421532 394.07459913 -151.125 391.9375 C-156.57626101 387.52861892 -161.68963498 382.8147602 -166.8125 378.03515625 C-169.17257542 375.83472434 -171.56409287 373.67918543 -174 371.5625 C-174.61359375 371.02882813 -175.2271875 370.49515625 -175.859375 369.9453125 C-177.30650815 368.68920093 -178.75456799 367.4341568 -180.203125 366.1796875 C-194.11041314 353.93615469 -206.89187454 340.10270079 -208.2734375 320.8203125 C-208.56420766 315.63272828 -208.7278178 310.44481522 -208.8125 305.25 C-212.51882193 305.25 -217.37582248 308.93692064 -220.625 310.5625 Z M-111.5 340.4375 C-112.97473022 342.20201893 -112.97473022 342.20201893 -113.24609375 344.5703125 C-112.71950421 347.82473076 -111.49187402 348.80542035 -108.90356445 350.7355957 C-108.33726318 351.13222412 -107.77096191 351.52885254 -107.1875 351.9375 C-106.5999292 352.36828857 -106.0123584 352.79907715 -105.40698242 353.24291992 C-103.5535766 354.59529894 -101.68473723 355.92385244 -99.8125 357.25 C-98.69597288 358.05379688 -97.58006734 358.85845802 -96.46484375 359.6640625 C-94.1826289 361.30669285 -91.8927802 362.9379601 -89.59765625 364.5625 C-85.40017533 367.53613174 -81.23072626 370.54805526 -77.0625 373.5625 C-76.30493408 374.11010986 -75.54736816 374.65771973 -74.7668457 375.22192383 C-73.22013247 376.34005534 -71.67350206 377.45830141 -70.12695312 378.57666016 C-65.60883282 381.84324207 -61.08884345 385.10723964 -56.56787109 388.36987305 C-52.78858446 391.09780697 -49.01244792 393.82991408 -45.2421875 396.5703125 C-41.5135876 399.2795944 -37.77200647 401.97019517 -34.02490234 404.65380859 C-31.77095278 406.27997525 -29.53600276 407.93024867 -27.30078125 409.58203125 C-25.86782075 410.61806393 -24.43425255 411.65325673 -23 412.6875 C-22.34821777 413.17879395 -21.69643555 413.67008789 -21.02490234 414.17626953 C-18.99011897 415.68578174 -18.99011897 415.68578174 -15.8125 417.25 C-12.92100413 416.8702349 -12.92100413 416.8702349 -10.8125 415.25 C-9.47142639 412.96242433 -9.47142639 412.96242433 -9.8125 410.25 C-13.52733275 405.99118403 -17.87821221 402.92365246 -22.5 399.75 C-24.02667557 398.68710783 -25.55269611 397.62327433 -27.078125 396.55859375 C-27.86123047 396.01315918 -28.64433594 395.46772461 -29.45117188 394.90576172 C-33.24474945 392.24570763 -36.99815294 389.53095583 -40.75 386.8125 C-41.49531982 386.27302734 -42.24063965 385.73355469 -43.00854492 385.17773438 C-44.52136283 384.0824757 -46.03397674 382.98693519 -47.54638672 381.89111328 C-51.298948 379.17351827 -55.05593419 376.46205527 -58.8125 373.75 C-60.31252146 372.66669638 -61.81252146 371.58336304 -63.3125 370.5 C-64.055 369.96375 -64.7975 369.4275 -65.5625 368.875 C-72.3125 364 -72.3125 364 -74.56616211 362.37231445 C-76.05390349 361.29786151 -77.54169578 360.22347905 -79.02954102 359.14916992 C-82.96753578 356.30556686 -86.90442759 353.46045216 -90.83984375 350.61328125 C-91.66162109 350.01902344 -92.48339844 349.42476562 -93.33007812 348.8125 C-94.90852805 347.67102209 -96.48666785 346.52911518 -98.06445312 345.38671875 C-98.77408203 344.87367188 -99.48371094 344.360625 -100.21484375 343.83203125 C-100.83866943 343.38061768 -101.46249512 342.9292041 -102.10522461 342.46411133 C-106.54576849 338.93807973 -106.54576849 338.93807973 -111.5 340.4375 Z M-47.8125 346.25 C-48.63814597 349.07376428 -48.63814597 349.07376428 -47.8125 352.25 C-45.49982843 354.71293897 -42.74897301 356.46115421 -39.9375 358.3125 C-38.27307243 359.45910566 -36.60902006 360.60625612 -34.9453125 361.75390625 C-33.66188965 362.62426514 -33.66188965 362.62426514 -32.35253906 363.51220703 C-28.45026939 366.18198361 -24.63436834 368.96696731 -20.8125 371.75 C-19.31296442 372.83397609 -17.81296262 373.91730751 -16.3125 375 C-7.3125 381.5 1.6875 388 10.6875 394.5 C11.43104736 395.0369751 12.17459473 395.5739502 12.94067383 396.12719727 C14.43021475 397.20303977 15.9196367 398.27904702 17.40893555 399.35522461 C21.31796482 402.17957858 25.22944514 405.00045282 29.14453125 407.81640625 C29.95728516 408.40164063 30.77003906 408.986875 31.60742188 409.58984375 C33.15873996 410.70679277 34.71077969 411.82274047 36.26367188 412.9375 C36.96685547 413.44410156 37.67003906 413.95070313 38.39453125 414.47265625 C39.05380615 414.94687012 39.71308105 415.42108398 40.39233398 415.90966797 C41.96714656 417.08547662 43.47126092 418.35475763 44.9609375 419.63671875 C47.24586899 421.65360752 47.24586899 421.65360752 51 421 C52.051875 420.7525 53.10375 420.505 54.1875 420.25 C54.5175 418.27 54.8475 416.29 55.1875 414.25 C47.98419777 408.23249937 40.42918681 402.83179165 32.74609375 397.453125 C28.21741785 394.28062493 23.72878451 391.05493303 19.25 387.8125 C18.50427734 387.27278564 17.75855469 386.73307129 16.99023438 386.17700195 C15.47784735 385.08195428 13.96564043 383.98665781 12.45361328 382.89111328 C8.70105192 380.17351821 4.94403374 377.46209981 1.1875 374.75 C-0.30860229 373.66928266 -1.80469604 372.58855348 -3.30078125 371.5078125 C-6.33876418 369.31360376 -9.37794994 367.12107461 -12.41796875 364.9296875 C-13.17698486 364.38207764 -13.93600098 363.83446777 -14.71801758 363.27026367 C-16.22595045 362.18307424 -17.73488538 361.09727318 -19.24487305 360.01293945 C-22.89958057 357.38253246 -26.523975 354.72287399 -30.1015625 351.98828125 C-30.78065674 351.47410645 -31.45975098 350.95993164 -32.15942383 350.43017578 C-33.4325768 349.46333225 -34.69858837 348.48698186 -35.95581055 347.49951172 C-38.51558411 345.56433017 -40.40095601 344.3115877 -43.60546875 343.83203125 C-46.01094756 344.07299143 -46.01094756 344.07299143 -47.8125 346.25 Z M-86.0703125 530.62890625 C-93.64811275 539.60413354 -100.45593952 551.18554504 -100.05859375 563.26953125 C-99.44671276 568.1937164 -97.55047121 571.87755835 -93.875 575.125 C-88.776417 578.66279229 -83.8760153 578.76482677 -77.8125 578.25 C-65.37958847 575.88373619 -55.62563442 569.03375731 -46.8125 560.25 C-46.1009375 559.56164062 -45.389375 558.87328125 -44.65625 558.1640625 C-35.57108858 548.76441472 -30.39207198 537.23242543 -30.53515625 524.1640625 C-31.04820437 518.77344427 -33.56751628 516.29691813 -37.5625 512.9375 C-54.52434252 504.13038946 -74.70260955 518.65151681 -86.0703125 530.62890625 Z " fill="#000000" transform="translate(812.8125,280.75)"/>
<path d="M0 0 C47.6573001 42.1873989 73.54085855 95.95069993 77.6875 159.47265625 C78.05100988 165.67814174 78.32483786 171.78661199 78 178 C77.9383667 179.21695557 77.9383667 179.21695557 77.87548828 180.45849609 C75.36630646 225.9684808 60.01979714 268.29734041 33 305 C37.96177656 311.30279725 43.74856884 316.01330924 50 321 C52.35235994 322.97922698 54.67677484 324.98653819 57 327 C56.67 327.99 56.34 328.98 56 330 C53.62890625 331.140625 53.62890625 331.140625 50.5625 332.25 C32.08762701 339.61808544 21.41475475 353.80203054 13.5 371.375 C13.005 372.57125 12.51 373.7675 12 375 C8.18511059 373.48601922 6.36923371 371.27002932 3.875 368.0625 C-0.84000443 362.13147946 -5.85076816 356.5577304 -11 351 C-15.32789973 351.91039199 -18.58558413 354.12184004 -22.25 356.5 C-55.14653459 377.32550827 -93.19450533 392.83543678 -132.6796875 393.23828125 C-133.48169586 393.2480751 -134.28370422 393.25786896 -135.11001587 393.26795959 C-154.10065357 393.4518315 -172.34127088 392.94085227 -191 389 C-192.04027344 388.78037598 -193.08054687 388.56075195 -194.15234375 388.33447266 C-253.52302497 375.37236317 -301.91818064 340.35123481 -335.32739258 289.93554688 C-355.80116748 258.01456098 -368.84950584 219.42676068 -369.23828125 181.3203125 C-369.25297203 180.11723198 -369.25297203 180.11723198 -369.26795959 178.8898468 C-369.45179802 159.90186553 -368.95482654 141.65420881 -365 123 C-364.79632813 122.02401855 -364.59265625 121.04803711 -364.3828125 120.04248047 C-351.95320478 62.66104296 -316.190484 14.37300118 -267.890625 -18.08984375 C-264.64088686 -20.14829187 -261.34638103 -22.10465192 -258 -24 C-257.26604004 -24.41749512 -256.53208008 -24.83499023 -255.77587891 -25.26513672 C-174.22164117 -71.10122622 -70.86402389 -61.16361716 0 0 Z M-217 21 C-217.73492676 21.34546875 -218.46985352 21.6909375 -219.22705078 22.046875 C-234.50132802 29.37142217 -247.79085615 39.28475356 -260 51 C-261.41152344 52.31677734 -261.41152344 52.31677734 -262.8515625 53.66015625 C-292.84458085 82.14912874 -309.64758621 123.91460166 -311 165 C-311.42255483 189.2427951 -307.32404638 213.94070666 -297 236 C-296.53956299 236.98685791 -296.53956299 236.98685791 -296.06982422 237.99365234 C-276.91977172 278.65054009 -243.42536063 310.15439593 -200.95629883 325.47753906 C-196.01450535 327.15131432 -191.03363494 328.62913772 -186 330 C-184.70570068 330.35578125 -184.70570068 330.35578125 -183.38525391 330.71875 C-159.11967028 337.03296963 -130.15473712 336.39190756 -106 330 C-105.28054199 329.81276367 -104.56108398 329.62552734 -103.81982422 329.43261719 C-99.12914821 328.17263045 -94.55958314 326.66962558 -90 325 C-89.33226562 324.75942871 -88.66453125 324.51885742 -87.9765625 324.27099609 C-65.29986499 315.95442425 -46.32645431 302.63814311 -29 286 C-28.4445752 285.46938965 -27.88915039 284.9387793 -27.31689453 284.39208984 C-23.01891994 280.20556618 -19.24749389 275.778963 -15.625 271 C-15.06337158 270.25943359 -14.50174316 269.51886719 -13.9230957 268.75585938 C11.81430422 234.2970967 23.92649752 190.25607307 17.74609375 147.46484375 C12.38257991 114.11777941 -1.15402116 83.21567164 -24.5546875 58.62109375 C-27 56 -27 56 -29.10546875 53.359375 C-51.17586502 25.8737681 -92.44764569 9.99130416 -126.4375 5.6875 C-157.82068375 2.31220046 -188.51615238 7.61010527 -217 21 Z " fill="#000000" transform="translate(482,269)"/>
<path d="M0 0 C14.48319525 6.52539566 26.26474321 15.66487036 37.61914062 26.67041016 C38.79570007 27.80328546 39.99699623 28.91037777 41.203125 30.01171875 C51.62891881 39.78060279 59.41793192 52.43805305 66 65 C66.90878906 66.71896484 66.90878906 66.71896484 67.8359375 68.47265625 C84.8447952 101.95194191 86.85218508 143.50337755 75.3671875 178.9921875 C68.96852407 197.96910801 60.08905364 214.81188937 47 230 C46.55543457 230.52287598 46.11086914 231.04575195 45.65283203 231.58447266 C21.33342655 259.97340233 -14.5724483 278.94675903 -52 282 C-68.12213803 282.64483563 -84.24456746 282.80045571 -100 279 C-100.72509766 278.83371094 -101.45019531 278.66742187 -102.19726562 278.49609375 C-123.41633701 273.53579135 -154.28789691 262.02462004 -167 243 C-162.89679887 243.63709592 -159.57097076 245.00772204 -155.8125 246.75 C-120.91671372 262.13781407 -80.99470468 261.27009407 -45.59326172 248.10498047 C-30.38210807 242.13380366 -16.32237243 233.74972716 -4 223 C-3.04738281 222.18015625 -2.09476563 221.3603125 -1.11328125 220.515625 C27.79640515 195.15559716 44.56437161 159.02925492 47.72875977 120.88500977 C50.19518661 81.71452794 37.03636467 43.73536759 11.54296875 14.1484375 C8.43935073 10.65879734 5.29616527 7.24545183 1.9375 4 C0 2 0 2 0 0 Z " fill="#000000" transform="translate(403,306)"/>
<path d="M0 0 C11.41005833 8.19079187 19.35386165 18.16019542 22.7734375 31.9296875 C24.91002105 45.55544673 22.5028206 58.6298899 14.92578125 70.23046875 C7.56254525 80.1418808 -3.26272002 87.97900866 -15.640625 90.359375 C-31.78107268 91.92697244 -45.37674286 89.03838479 -58.1328125 78.6875 C-67.87946064 69.53380384 -73.14054086 57.76263185 -73.9375 44.48828125 C-74.32706709 30.5856058 -69.30949762 17.55655757 -59.77734375 7.40234375 C-43.93184585 -7.4929832 -19.03645994 -11.6878265 0 0 Z M-48.8125 21.5703125 C-55.13695934 30.61343083 -56.70348032 37.53488483 -55.8125 48.5703125 C-53.85820087 56.98792624 -49.28977597 63.70809848 -42.0078125 68.36328125 C-32.33689169 73.54325283 -25.25456684 74.61519404 -14.67578125 71.64453125 C-6.39465344 68.53769612 -0.24312591 61.9286762 4 54.3203125 C7.11990263 44.4679884 6.61441658 35.99649108 2.1875 26.5703125 C-2.76171783 19.03889407 -9.01782591 13.83147548 -17.8125 11.5703125 C-29.60533941 10.09288002 -40.77845813 12.32136674 -48.8125 21.5703125 Z " fill="#000000" transform="translate(286.8125,720.4296875)"/>
<path d="M0 0 C12.00375 -0.1546875 12.00375 -0.1546875 24.25 -0.3125 C28.00165527 -0.38078003 28.00165527 -0.38078003 31.82910156 -0.45043945 C55.48265266 -0.7036638 55.48265266 -0.7036638 64.22143555 6.9440918 C70.61544995 13.43307101 72.27947743 19.8644722 72.4375 28.8125 C72.36409919 37.62773338 70.85829868 45.31202271 64.75 51.9375 C58.75338187 57.31511239 52.05740235 60.14669148 44.015625 60.09765625 C43.17290039 60.09515869 42.33017578 60.09266113 41.46191406 60.09008789 C40.40198242 60.08098389 39.34205078 60.07187988 38.25 60.0625 C34.8675 60.041875 31.485 60.02125 28 60 C28 66.93 28 73.86 28 81 C18.76 81 9.52 81 0 81 C0 54.27 0 27.54 0 0 Z M28 21 C28 26.94 28 32.88 28 39 C30.0625 39.0825 32.125 39.165 34.25 39.25 C35.41015625 39.29640625 36.5703125 39.3428125 37.765625 39.390625 C41.0765473 39.27911982 41.0765473 39.27911982 43.359375 37.109375 C46.08935043 33.59940659 46.34826876 31.44042675 46 27 C44.23526445 23.28843126 44.23526445 23.28843126 41 21 C36.66396021 20.8606671 32.33919329 20.95745889 28 21 Z " fill="#000000" transform="translate(323,720)"/>
<path d="M0 0 C3.68910659 2.49821852 7.08480305 5.04869024 10.16015625 8.28125 C8.5689158 11.91714887 6.32076585 14.68191524 3.78515625 17.71875 C0.32864614 21.87429186 0.32864614 21.87429186 -3.00390625 26.12890625 C-3.60976563 26.83917969 -4.215625 27.54945313 -4.83984375 28.28125 C-5.49984375 28.28125 -6.15984375 28.28125 -6.83984375 28.28125 C-7.56171875 27.37375 -8.28359375 26.46625 -9.02734375 25.53125 C-12.42272891 21.365981 -15.96662803 18.68143185 -21.3359375 17.93359375 C-26.27627955 17.76475591 -29.94570383 17.95977772 -33.83984375 21.28125 C-38.82480788 26.82009903 -39.13320899 31.09932919 -39.0546875 38.33203125 C-38.67981561 43.47799997 -37.05016042 46.18901301 -33.27734375 49.59375 C-28.53842773 52.87453801 -24.50657154 52.88603235 -18.83984375 52.28125 C-13.96272769 50.68042789 -10.19568738 48.1964009 -6.83984375 44.28125 C-2.68605231 45.87583344 -0.11427703 48.92345941 2.78515625 52.15625 C3.275 52.68605469 3.76484375 53.21585938 4.26953125 53.76171875 C6.70051448 56.43845711 8.77941288 58.91873378 10.16015625 62.28125 C1.0545792 71.55152741 -9.69140553 77.29366187 -22.74487305 77.57373047 C-36.43722692 77.67687912 -47.21434872 75.27800735 -57.5546875 65.69140625 C-65.91976472 56.64520315 -69.37399941 45.30436477 -69.0859375 33.171875 C-68.13774191 22.0343395 -64.33387195 12.19648552 -56.08984375 4.46875 C-40.72558215 -7.98717145 -17.07213644 -10.33251724 0 0 Z " fill="#000000" transform="translate(524.83984375,724.71875)"/>
<path d="M0 0 C24.42 0 48.84 0 74 0 C74 6.93 74 13.86 74 21 C66.41 21 58.82 21 51 21 C51 40.8 51 60.6 51 81 C41.76 81 32.52 81 23 81 C23 61.2 23 41.4 23 21 C15.41 21 7.82 21 0 21 C0 14.07 0 7.14 0 0 Z " fill="#000000" transform="translate(137,720)"/>
<path d="M0 0 C9.24 0 18.48 0 28 0 C28 26.73 28 53.46 28 81 C18.76 81 9.52 81 0 81 C0 54.27 0 27.54 0 0 Z " fill="#000000" transform="translate(412,720)"/>
<path d="M0 0 C3.41995738 0.05336104 5.03610985 0.33341575 7.77734375 2.42578125 C10.17917026 5.07951723 12.3447821 7.82933852 14.5 10.6875 C15.4292241 11.86830587 16.36164508 13.04660143 17.296875 14.22265625 C19.15709036 16.56625923 20.99750574 18.92319737 22.82421875 21.29296875 C25.59722559 24.86095303 28.53166442 28.28141378 31.5 31.6875 C31.53758423 30.33217163 31.53758423 30.33217163 31.57592773 28.94946289 C31.67087317 25.6078572 31.77011621 22.26643748 31.87231445 18.92504883 C31.9157163 17.4768576 31.95738744 16.02861346 31.99731445 14.58032227 C32.05489062 12.50260441 32.11862028 10.42515427 32.18359375 8.34765625 C32.22025146 7.09605713 32.25690918 5.84445801 32.29467773 4.55493164 C32.5 1.6875 32.5 1.6875 33.5 0.6875 C35.49799572 0.58876184 37.49957158 0.55778201 39.5 0.5625 C40.593125 0.55992187 41.68625 0.55734375 42.8125 0.5546875 C45.5 0.6875 45.5 0.6875 46.5 1.6875 C46.59881593 3.40068946 46.62798969 5.11794803 46.62939453 6.83398438 C46.63254669 7.93182251 46.63569885 9.02966064 46.63894653 10.1607666 C46.6369223 11.35552612 46.63489807 12.55028564 46.6328125 13.78125 C46.63376923 14.99824585 46.63472595 16.2152417 46.63571167 17.46911621 C46.63639372 20.04825899 46.63453772 22.62740347 46.63037109 25.20654297 C46.62502322 29.17028636 46.63031529 33.13391642 46.63671875 37.09765625 C46.63605797 39.59635442 46.63477682 42.09505252 46.6328125 44.59375 C46.63483673 45.78850952 46.63686096 46.98326904 46.63894653 48.2142334 C46.63421829 49.8609906 46.63421829 49.8609906 46.62939453 51.54101562 C46.62859894 52.5128479 46.62780334 53.48468018 46.62698364 54.48596191 C46.5 56.6875 46.5 56.6875 45.5 57.6875 C43.390625 57.9609375 43.390625 57.9609375 40.75 58.0625 C39.88890625 58.11148438 39.0278125 58.16046875 38.140625 58.2109375 C31.90206392 56.97429965 27.50993259 49.1988599 23.625 44.4375 C23.03847656 43.72464844 22.45195312 43.01179687 21.84765625 42.27734375 C17.64301678 37.14860769 13.54936564 31.93947937 9.5 26.6875 C9.47494385 27.59105225 9.4498877 28.49460449 9.42407227 29.42553711 C9.32912683 32.7671428 9.22988379 36.10856252 9.12768555 39.44995117 C9.0842837 40.8981424 9.04261256 42.34638654 9.00268555 43.79467773 C8.94510938 45.87239559 8.88137972 47.94984573 8.81640625 50.02734375 C8.76141968 51.90474243 8.76141968 51.90474243 8.70532227 53.82006836 C8.5 56.6875 8.5 56.6875 7.5 57.6875 C5.50200428 57.78623816 3.50042842 57.81721799 1.5 57.8125 C0.406875 57.81507813 -0.68625 57.81765625 -1.8125 57.8203125 C-4.5 57.6875 -4.5 57.6875 -5.5 56.6875 C-5.59881593 54.97431054 -5.62798969 53.25705197 -5.62939453 51.54101562 C-5.63412277 49.89425842 -5.63412277 49.89425842 -5.63894653 48.2142334 C-5.6369223 47.01947388 -5.63489807 45.82471436 -5.6328125 44.59375 C-5.63376923 43.37675415 -5.63472595 42.1597583 -5.63571167 40.90588379 C-5.63639372 38.32674101 -5.63453772 35.74759653 -5.63037109 33.16845703 C-5.62502322 29.20471364 -5.63031529 25.24108358 -5.63671875 21.27734375 C-5.63605797 18.77864558 -5.63477682 16.27994748 -5.6328125 13.78125 C-5.63483673 12.58649048 -5.63686096 11.39173096 -5.63894653 10.1607666 C-5.63579437 9.06292847 -5.63264221 7.96509033 -5.62939453 6.83398438 C-5.62859894 5.8621521 -5.62780334 4.89031982 -5.62698364 3.88903809 C-5.40548007 0.04879116 -3.47928475 0.32752526 0 0 Z " fill="#000000" transform="translate(367.5,841.3125)"/>
<path d="M0 0 C3.41995738 0.05336104 5.03610985 0.33341575 7.77734375 2.42578125 C10.17917026 5.07951723 12.3447821 7.82933852 14.5 10.6875 C15.4292241 11.86830587 16.36164508 13.04660143 17.296875 14.22265625 C19.15709036 16.56625923 20.99750574 18.92319737 22.82421875 21.29296875 C25.59722559 24.86095303 28.53166442 28.28141378 31.5 31.6875 C31.53758423 30.33217163 31.53758423 30.33217163 31.57592773 28.94946289 C31.67087317 25.6078572 31.77011621 22.26643748 31.87231445 18.92504883 C31.9157163 17.4768576 31.95738744 16.02861346 31.99731445 14.58032227 C32.05489062 12.50260441 32.11862028 10.42515427 32.18359375 8.34765625 C32.22025146 7.09605713 32.25690918 5.84445801 32.29467773 4.55493164 C32.5 1.6875 32.5 1.6875 33.5 0.6875 C35.49799572 0.58876184 37.49957158 0.55778201 39.5 0.5625 C40.593125 0.55992187 41.68625 0.55734375 42.8125 0.5546875 C45.5 0.6875 45.5 0.6875 46.5 1.6875 C46.59881593 3.40068946 46.62798969 5.11794803 46.62939453 6.83398438 C46.63254669 7.93182251 46.63569885 9.02966064 46.63894653 10.1607666 C46.6369223 11.35552612 46.63489807 12.55028564 46.6328125 13.78125 C46.63376923 14.99824585 46.63472595 16.2152417 46.63571167 17.46911621 C46.63639372 20.04825899 46.63453772 22.62740347 46.63037109 25.20654297 C46.62502322 29.17028636 46.63031529 33.13391642 46.63671875 37.09765625 C46.63605797 39.59635442 46.63477682 42.09505252 46.6328125 44.59375 C46.63483673 45.78850952 46.63686096 46.98326904 46.63894653 48.2142334 C46.63421829 49.8609906 46.63421829 49.8609906 46.62939453 51.54101562 C46.62859894 52.5128479 46.62780334 53.48468018 46.62698364 54.48596191 C46.5 56.6875 46.5 56.6875 45.5 57.6875 C43.390625 57.9609375 43.390625 57.9609375 40.75 58.0625 C39.88890625 58.11148438 39.0278125 58.16046875 38.140625 58.2109375 C31.90206392 56.97429965 27.50993259 49.1988599 23.625 44.4375 C23.03847656 43.72464844 22.45195312 43.01179687 21.84765625 42.27734375 C17.64301678 37.14860769 13.54936564 31.93947937 9.5 26.6875 C9.47494385 27.59105225 9.4498877 28.49460449 9.42407227 29.42553711 C9.32912683 32.7671428 9.22988379 36.10856252 9.12768555 39.44995117 C9.0842837 40.8981424 9.04261256 42.34638654 9.00268555 43.79467773 C8.94510938 45.87239559 8.88137972 47.94984573 8.81640625 50.02734375 C8.76141968 51.90474243 8.76141968 51.90474243 8.70532227 53.82006836 C8.5 56.6875 8.5 56.6875 7.5 57.6875 C5.50200428 57.78623816 3.50042842 57.81721799 1.5 57.8125 C0.406875 57.81507813 -0.68625 57.81765625 -1.8125 57.8203125 C-4.5 57.6875 -4.5 57.6875 -5.5 56.6875 C-5.59881593 54.97431054 -5.62798969 53.25705197 -5.62939453 51.54101562 C-5.63412277 49.89425842 -5.63412277 49.89425842 -5.63894653 48.2142334 C-5.6369223 47.01947388 -5.63489807 45.82471436 -5.6328125 44.59375 C-5.63376923 43.37675415 -5.63472595 42.1597583 -5.63571167 40.90588379 C-5.63639372 38.32674101 -5.63453772 35.74759653 -5.63037109 33.16845703 C-5.62502322 29.20471364 -5.63031529 25.24108358 -5.63671875 21.27734375 C-5.63605797 18.77864558 -5.63477682 16.27994748 -5.6328125 13.78125 C-5.63483673 12.58649048 -5.63686096 11.39173096 -5.63894653 10.1607666 C-5.63579437 9.06292847 -5.63264221 7.96509033 -5.62939453 6.83398438 C-5.62859894 5.8621521 -5.62780334 4.89031982 -5.62698364 3.88903809 C-5.40548007 0.04879116 -3.47928475 0.32752526 0 0 Z " fill="#000000" transform="translate(171.5,841.3125)"/>
<path d="M0 0 C1.26972656 -0.02900391 2.53945312 -0.05800781 3.84765625 -0.08789062 C14.23468147 -0.15685453 24.46868058 0.91667341 32.8125 7.625 C38.68438633 13.435077 42.16383578 20.39589 42.28515625 28.7265625 C41.74159978 37.29089135 39.2868065 43.74755179 33 49.6875 C25.42681491 55.94252808 17.25137359 57.43569784 7.57421875 57.4453125 C6.33478516 57.44660156 5.09535156 57.44789063 3.81835938 57.44921875 C2.53767578 57.44535156 1.25699219 57.44148437 -0.0625 57.4375 C-1.36251953 57.44136719 -2.66253906 57.44523438 -4.00195312 57.44921875 C-5.85143555 57.44728516 -5.85143555 57.44728516 -7.73828125 57.4453125 C-8.86790283 57.44418457 -9.99752441 57.44305664 -11.16137695 57.44189453 C-13.75 57.3125 -13.75 57.3125 -14.75 56.3125 C-14.84881593 54.59931054 -14.87798969 52.88205197 -14.87939453 51.16601562 C-14.88412277 49.51925842 -14.88412277 49.51925842 -14.88894653 47.8392334 C-14.8869223 46.64447388 -14.88489807 45.44971436 -14.8828125 44.21875 C-14.88376923 43.00175415 -14.88472595 41.7847583 -14.88571167 40.53088379 C-14.88639372 37.95174101 -14.88453772 35.37259653 -14.88037109 32.79345703 C-14.87502322 28.82971364 -14.88031529 24.86608358 -14.88671875 20.90234375 C-14.88605797 18.40364558 -14.88477682 15.90494748 -14.8828125 13.40625 C-14.88483673 12.21149048 -14.88686096 11.01673096 -14.88894653 9.7857666 C-14.88579437 8.68792847 -14.88264221 7.59009033 -14.87939453 6.45898438 C-14.87859894 5.4871521 -14.87780334 4.51531982 -14.87698364 3.51403809 C-14.5398124 -2.33156002 -4.37782979 0.0321584 0 0 Z M-0.75 12.3125 C-0.75 23.2025 -0.75 34.0925 -0.75 45.3125 C14.73238994 46.09677207 14.73238994 46.09677207 25.75 38.875 C28.06051517 33.38752648 27.97455237 28.17614544 27.25 22.3125 C24.98134423 17.13996485 21.43065796 14.4065176 16.25 12.3125 C13.23995161 11.86617662 10.34615701 11.92839604 7.3125 12.0625 C4.651875 12.145 1.99125 12.2275 -0.75 12.3125 Z " fill="#000000" transform="translate(244.75,841.6875)"/>
<path d="M0 0 C6.6172139 5.55627217 10.6938337 12.00570012 11.5390625 20.6796875 C11.78586917 29.59070727 9.74911903 36.47286689 4.23828125 43.546875 C-1.87788174 49.98905947 -10.10233523 52.94989692 -18.87109375 53.36328125 C-28.87062852 52.90750135 -36.14730398 49.72815454 -43.19140625 42.7578125 C-48.44645275 36.94305691 -50.8792223 29.98652788 -50.69921875 22.234375 C-49.47229241 13.20515007 -46.76178357 6.09156724 -39.40234375 0.484375 C-27.15824765 -7.42485478 -12.51525254 -8.18653278 0 0 Z M-33.13671875 12.859375 C-36.71903388 18.304494 -36.2507433 23.85688691 -35.69921875 30.234375 C-33.45067872 35.16386659 -30.48905697 37.74734362 -25.69921875 40.234375 C-20.389663 41.71586 -15.7666705 41.53776216 -10.69921875 39.234375 C-6.68124895 35.51314149 -3.13790378 31.88049484 -2.4609375 26.25390625 C-2.26363928 20.38688034 -3.22210108 16.03714378 -6.69921875 11.234375 C-10.78467928 7.44073308 -14.73497192 6.41396591 -20.16796875 6.0703125 C-25.69751169 6.4287088 -29.43814629 8.87629697 -33.13671875 12.859375 Z " fill="#000000" transform="translate(341.69921875,846.765625)"/>
<path d="M0 0 C1.33278992 0.00303635 1.33278992 0.00303635 2.69250488 0.00613403 C3.5987561 0.00517731 4.50500732 0.00422058 5.4387207 0.00323486 C7.35876535 0.002553 9.27881229 0.00440771 11.19885254 0.00857544 C14.14861192 0.01392361 17.09821902 0.00863066 20.04797363 0.00222778 C21.90865105 0.00288856 23.76932838 0.00416972 25.63000488 0.00613403 C26.51853149 0.0041098 27.40705811 0.00208557 28.32250977 0 C34.546305 0.02399665 34.546305 0.02399665 35.66125488 1.13894653 C35.75949425 2.80323705 35.79099119 4.47176584 35.78625488 6.13894653 C35.79012207 7.50019653 35.79012207 7.50019653 35.79406738 8.88894653 C35.66125488 11.13894653 35.66125488 11.13894653 34.66125488 12.13894653 C32.58863412 12.22661766 30.51305194 12.24590526 28.43859863 12.23660278 C27.17854004 12.23338013 25.91848145 12.23015747 24.62023926 12.22683716 C23.2797438 12.21848057 21.939249 12.21001561 20.59875488 12.20144653 C19.25435546 12.19643313 17.90995429 12.19186995 16.56555176 12.18777466 C13.26407548 12.17594141 9.96268685 12.15945624 6.66125488 12.13894653 C6.66125488 15.43894653 6.66125488 18.73894653 6.66125488 22.13894653 C7.38304932 22.13370972 8.10484375 22.1284729 8.84851074 22.12307739 C12.09858337 22.10237295 15.34864217 22.08930735 18.59875488 22.07644653 C19.73506348 22.06806763 20.87137207 22.05968872 22.04211426 22.05105591 C23.1217041 22.04783325 24.20129395 22.0446106 25.31359863 22.04129028 C26.81394653 22.03343506 26.81394653 22.03343506 28.34460449 22.02542114 C30.66125488 22.13894653 30.66125488 22.13894653 31.66125488 23.13894653 C31.75949425 24.80323705 31.79099119 26.47176584 31.78625488 28.13894653 C31.79012207 29.50019653 31.79012207 29.50019653 31.79406738 30.88894653 C31.66125488 33.13894653 31.66125488 33.13894653 30.66125488 34.13894653 C28.88054242 34.22620876 27.09642348 34.24593694 25.31359863 34.23660278 C24.23400879 34.23338013 23.15441895 34.23015747 22.04211426 34.22683716 C20.90580566 34.21845825 19.76949707 34.21007935 18.59875488 34.20144653 C17.4585791 34.19693481 16.31840332 34.1924231 15.14367676 34.18777466 C12.3161807 34.17594413 9.48871143 34.15800804 6.66125488 34.13894653 C6.66125488 37.76894653 6.66125488 41.39894653 6.66125488 45.13894653 C16.56125488 45.13894653 26.46125488 45.13894653 36.66125488 45.13894653 C36.66125488 48.76894653 36.66125488 52.39894653 36.66125488 56.13894653 C34.71261563 58.08758578 31.76316768 57.26813393 29.17004395 57.27789307 C28.25964355 57.27586884 27.34924316 57.2738446 26.41125488 57.27175903 C25.48280762 57.27271576 24.55436035 57.27367249 23.59777832 57.2746582 C21.63065524 57.27534008 19.66352992 57.27348525 17.69641113 57.26931763 C14.67422462 57.26396948 11.65218674 57.26926236 8.63000488 57.27566528 C6.72375455 57.2750045 4.81750432 57.27372334 2.91125488 57.27175903 C1.5456543 57.27479538 1.5456543 57.27479538 0.15246582 57.27789307 C-6.22379543 57.25389622 -6.22379543 57.25389622 -7.33874512 56.13894653 C-7.43756105 54.42575708 -7.46673481 52.7084985 -7.46813965 50.99246216 C-7.47286789 49.34570496 -7.47286789 49.34570496 -7.47769165 47.66567993 C-7.47566742 46.47092041 -7.47364319 45.27616089 -7.47155762 44.04519653 C-7.47251434 42.82820068 -7.47347107 41.61120483 -7.47445679 40.35733032 C-7.47513884 37.77818755 -7.47328283 35.19904307 -7.46911621 32.61990356 C-7.46376834 28.65616018 -7.46906041 24.69253012 -7.47546387 20.72879028 C-7.47480309 18.23009211 -7.47352194 15.73139402 -7.47155762 13.23269653 C-7.47358185 12.03793701 -7.47560608 10.84317749 -7.47769165 9.61221313 C-7.47453949 8.514375 -7.47138733 7.41653687 -7.46813965 6.28543091 C-7.46734406 5.31359863 -7.46654846 4.34176636 -7.46572876 3.34048462 C-7.19809239 -1.29957488 -3.88896185 0.0149944 0 0 Z " fill="#000000" transform="translate(432.3387451171875,841.8610534667969)"/>
<path d="M0 0 C1.9375 -0.08333333 3.875 -0.16666667 5.8125 -0.25 C7.43091797 -0.31960938 7.43091797 -0.31960938 9.08203125 -0.390625 C12 0 12 0 13.45849609 1.53637695 C15.50976601 4.81470524 17.0439172 8.27103693 18.58203125 11.80859375 C18.91869308 12.57115982 19.25535492 13.33372589 19.60221863 14.11940002 C20.67716486 16.55666451 21.74509517 18.9969246 22.8125 21.4375 C23.86737089 23.83801523 24.92371621 26.23787382 25.98092651 28.63735962 C26.67049852 30.20341932 27.35860137 31.7701268 28.04519653 33.3374939 C30.57195514 39.08980739 33.22624821 44.76824089 35.9753418 50.41821289 C37 53 37 53 37 57 C32.71 57 28.42 57 24 57 C19 47.25 19 47.25 19 45 C10.42 45 1.84 45 -7 45 C-7.99 48.3 -8.98 51.6 -10 55 C-12 57 -12 57 -14.8203125 57.1953125 C-15.91085937 57.17210937 -17.00140625 57.14890625 -18.125 57.125 C-19.22070312 57.10695313 -20.31640625 57.08890625 -21.4453125 57.0703125 C-22.28835938 57.04710937 -23.13140625 57.02390625 -24 57 C-25.15167642 53.54497074 -24.90892389 53.15225435 -23.46459961 49.99438477 C-22.92294411 48.79151573 -22.92294411 48.79151573 -22.37034607 47.56434631 C-21.9684053 46.69877609 -21.56646454 45.83320587 -21.15234375 44.94140625 C-20.74343399 44.04187729 -20.33452423 43.14234833 -19.91322327 42.21556091 C-18.59705627 39.32696335 -17.26721883 36.44488021 -15.9375 33.5625 C-15.06751428 31.65468202 -14.19836401 29.74648283 -13.33007812 27.83789062 C-9.0558904 18.47124821 -4.7211709 9.15153203 0 0 Z M5 16 C3.83121737 18.81163781 2.66488052 21.62424608 1.5 24.4375 C1.16613281 25.23994141 0.83226562 26.04238281 0.48828125 26.86914062 C0.17246094 27.63291016 -0.14335938 28.39667969 -0.46875 29.18359375 C-0.76201172 29.89056396 -1.05527344 30.59753418 -1.35742188 31.32592773 C-2.05972491 32.85673784 -2.05972491 32.85673784 -2 34 C3.28 34 8.56 34 14 34 C13.02216461 31.37449704 12.0427937 28.74958495 11.0625 26.125 C10.78470703 25.37863281 10.50691406 24.63226562 10.22070312 23.86328125 C8.74900806 19.87275485 8.74900806 19.87275485 7 16 C6.34 16 5.68 16 5 16 Z " fill="#000000" transform="translate(572,842)"/>
<path d="M0 0 C-0.44876616 1.64846769 -0.90930488 3.29373455 -1.375 4.9375 C-1.75785156 6.31228516 -1.75785156 6.31228516 -2.1484375 7.71484375 C-3 10 -3 10 -5 11 C-6.093125 10.525625 -7.18625 10.05125 -8.3125 9.5625 C-13.96578391 7.29285747 -19.99989329 7.34559743 -26 8 C-28.28728734 9.83883881 -28.28728734 9.83883881 -28.125 12.625 C-28.063125 13.800625 -28.063125 13.800625 -28 15 C-23.02667288 16.98933085 -18.13140529 18.48769385 -12.9375 19.8125 C-7.13961226 21.44684563 -2.73196632 23.14117372 1 28 C3.34560787 32.59348208 3.17571112 36.02583755 2 41 C-0.31920569 46.12666521 -4.2533148 49.72459062 -9.35546875 52.09375 C-18.85162811 55.347973 -28.60240499 53.94268126 -38 51 C-40.35729835 49.83795152 -41.99286425 48.71196873 -44 47 C-43.57742724 45.5164999 -43.13643678 44.03823576 -42.6875 42.5625 C-42.44386719 41.73878906 -42.20023437 40.91507813 -41.94921875 40.06640625 C-41.47935547 39.04353516 -41.47935547 39.04353516 -41 38 C-37.35793918 36.78597973 -36.93705528 37.30347937 -33.625 38.9375 C-27.52713423 41.53290973 -21.54830707 41.78983788 -15 41 C-14.01 40.34 -13.02 39.68 -12 39 C-12.495 36.525 -12.495 36.525 -13 34 C-13.63502441 33.8141333 -14.27004883 33.6282666 -14.92431641 33.43676758 C-17.82927092 32.57714899 -20.72694118 31.69507403 -23.625 30.8125 C-24.62402344 30.52052734 -25.62304688 30.22855469 -26.65234375 29.92773438 C-33.29479504 27.8822113 -38.37230829 25.95289647 -42.35546875 19.9609375 C-43.92730512 15.17874442 -43.50029809 10.4453056 -41.875 5.75 C-37.90191667 -0.07718889 -33.05252836 -3.18148085 -26.234375 -4.55859375 C-16.90450378 -5.83187328 -8.39849848 -4.07602071 0 0 Z " fill="#000000" transform="translate(518,846)"/>
<path d="M0 0 C4.14467439 1.63791045 6.95348421 4.64753578 10.04296875 7.7421875 C10.61203445 8.30696808 11.18110016 8.87174866 11.76741028 9.4536438 C12.96589237 10.64639536 14.16177915 11.84175967 15.35522461 13.03955078 C17.18285325 14.8703452 19.02341363 16.68740347 20.86523438 18.50390625 C22.02945606 19.66585542 23.19289467 20.82858984 24.35546875 21.9921875 C24.90647751 22.53398651 25.45748627 23.07578552 26.02519226 23.63400269 C30.90026408 28.56890232 30.90026408 28.56890232 31 32 C28.63159975 37.42758391 25.51641586 41.51130511 20 44 C17.80957031 44.44946289 17.80957031 44.44946289 15 44 C12.44852649 42.15966097 10.34117133 39.92161287 8.16796875 37.65625 C7.53135818 37.0125647 6.89474762 36.36887939 6.23884583 35.70568848 C4.20969476 33.64856535 2.19861967 31.57473991 0.1875 29.5 C-1.18569282 28.10172825 -2.56002893 26.70457828 -3.93554688 25.30859375 C-7.30376553 21.88526808 -10.65587576 18.44685988 -14 15 C-11.49121153 12.48702323 -8.97921818 9.97972506 -6.4375 7.5 C-4.10870056 5.11148775 -2.03621503 2.639538 0 0 Z " fill="#000000" transform="translate(303,790)"/>
<path d="M0 0 C1.093125 0.00257813 2.18625 0.00515625 3.3125 0.0078125 C4.405625 0.00523437 5.49875 0.00265625 6.625 0 C9.3125 0.1328125 9.3125 0.1328125 10.3125 1.1328125 C10.41131593 2.84600196 10.44048969 4.56326053 10.44189453 6.27929688 C10.44504669 7.37713501 10.44819885 8.47497314 10.45144653 9.6060791 C10.4494223 10.80083862 10.44739807 11.99559814 10.4453125 13.2265625 C10.44626923 14.44355835 10.44722595 15.6605542 10.44821167 16.91442871 C10.44889372 19.49357149 10.44703772 22.07271597 10.44287109 24.65185547 C10.43752322 28.61559886 10.44281529 32.57922892 10.44921875 36.54296875 C10.44855797 39.04166692 10.44727682 41.54036502 10.4453125 44.0390625 C10.44733673 45.23382202 10.44936096 46.42858154 10.45144653 47.6595459 C10.44829437 48.75738403 10.44514221 49.85522217 10.44189453 50.98632812 C10.44070114 52.44407654 10.44070114 52.44407654 10.43948364 53.93127441 C10.3125 56.1328125 10.3125 56.1328125 9.3125 57.1328125 C7.31450428 57.23155066 5.31292842 57.26253049 3.3125 57.2578125 C2.219375 57.26039063 1.12625 57.26296875 0 57.265625 C-2.6875 57.1328125 -2.6875 57.1328125 -3.6875 56.1328125 C-3.78631593 54.41962304 -3.81548969 52.70236447 -3.81689453 50.98632812 C-3.82162277 49.33957092 -3.82162277 49.33957092 -3.82644653 47.6595459 C-3.8244223 46.46478638 -3.82239807 45.27002686 -3.8203125 44.0390625 C-3.82126923 42.82206665 -3.82222595 41.6050708 -3.82321167 40.35119629 C-3.82389372 37.77205351 -3.82203772 35.19290903 -3.81787109 32.61376953 C-3.81252322 28.65002614 -3.81781529 24.68639608 -3.82421875 20.72265625 C-3.82355797 18.22395808 -3.82227682 15.72525998 -3.8203125 13.2265625 C-3.82233673 12.03180298 -3.82436096 10.83704346 -3.82644653 9.6060791 C-3.82329437 8.50824097 -3.82014221 7.41040283 -3.81689453 6.27929688 C-3.81609894 5.3074646 -3.81530334 4.33563232 -3.81448364 3.33435059 C-3.62629851 0.0717513 -3.29743801 0.16295479 0 0 Z " fill="#000000" transform="translate(531.6875,841.8671875)"/>
<path d="M0 0 C1.093125 0.00257813 2.18625 0.00515625 3.3125 0.0078125 C4.405625 0.00523437 5.49875 0.00265625 6.625 0 C9.3125 0.1328125 9.3125 0.1328125 10.3125 1.1328125 C10.41131593 2.84600196 10.44048969 4.56326053 10.44189453 6.27929688 C10.44504669 7.37713501 10.44819885 8.47497314 10.45144653 9.6060791 C10.4494223 10.80083862 10.44739807 11.99559814 10.4453125 13.2265625 C10.44626923 14.44355835 10.44722595 15.6605542 10.44821167 16.91442871 C10.44889372 19.49357149 10.44703772 22.07271597 10.44287109 24.65185547 C10.43752322 28.61559886 10.44281529 32.57922892 10.44921875 36.54296875 C10.44855797 39.04166692 10.44727682 41.54036502 10.4453125 44.0390625 C10.44733673 45.23382202 10.44936096 46.42858154 10.45144653 47.6595459 C10.44829437 48.75738403 10.44514221 49.85522217 10.44189453 50.98632812 C10.44070114 52.44407654 10.44070114 52.44407654 10.43948364 53.93127441 C10.3125 56.1328125 10.3125 56.1328125 9.3125 57.1328125 C7.31450428 57.23155066 5.31292842 57.26253049 3.3125 57.2578125 C2.219375 57.26039063 1.12625 57.26296875 0 57.265625 C-2.6875 57.1328125 -2.6875 57.1328125 -3.6875 56.1328125 C-3.78631593 54.41962304 -3.81548969 52.70236447 -3.81689453 50.98632812 C-3.82162277 49.33957092 -3.82162277 49.33957092 -3.82644653 47.6595459 C-3.8244223 46.46478638 -3.82239807 45.27002686 -3.8203125 44.0390625 C-3.82126923 42.82206665 -3.82222595 41.6050708 -3.82321167 40.35119629 C-3.82389372 37.77205351 -3.82203772 35.19290903 -3.81787109 32.61376953 C-3.81252322 28.65002614 -3.81781529 24.68639608 -3.82421875 20.72265625 C-3.82355797 18.22395808 -3.82227682 15.72525998 -3.8203125 13.2265625 C-3.82233673 12.03180298 -3.82436096 10.83704346 -3.82644653 9.6060791 C-3.82329437 8.50824097 -3.82014221 7.41040283 -3.81689453 6.27929688 C-3.81609894 5.3074646 -3.81530334 4.33563232 -3.81448364 3.33435059 C-3.62629851 0.0717513 -3.29743801 0.16295479 0 0 Z " fill="#000000" transform="translate(144.6875,841.8671875)"/>
<path d="M0 0 C7.12664604 1.94477137 12.96872275 6.6064603 17.01171875 12.765625 C20.78132046 20.04626369 21.91008815 27.50380585 19.83984375 35.52734375 C16.97108066 43.85238174 13.15732037 49.08053801 5.59375 53.60546875 C1.13930936 55.55428653 -2.56628167 55.79906748 -7.40625 55.60546875 C-5.73574879 54.49180128 -4.05097804 53.39656352 -2.3203125 52.37890625 C4.36758021 48.29312879 8.24145066 44.37102365 10.40625 36.7421875 C12.18349759 28.00035093 11.5885659 21.51729458 6.96875 13.85546875 C0.98376689 5.59734301 -6.72414033 3.59030123 -16.40625 1.60546875 C-11.4341653 -1.70925438 -5.76318164 -0.94493725 0 0 Z " fill="#000000" transform="translate(270.40625,734.39453125)"/>
</svg>
